<svg width="190" height="29" viewBox="0 0 190 29" fill="none" xmlns="http://www.w3.org/2000/svg">
<g clip-path="url(#clip0_8_1695)">
<path d="M180.012 12.7373V16.6851H182.79V20.6019C182.799 20.9519 182.779 21.3294 182.719 21.6314C182.609 22.3619 181.914 23.606 179.942 23.606C177.982 23.606 177.299 22.3619 177.181 21.6314C177.131 21.3294 177.11 20.9519 177.11 20.6019V8.23075C177.11 7.79315 177.14 7.3142 177.233 6.95168C177.367 6.29234 177.952 4.99207 179.928 4.99207C182.001 4.99207 182.518 6.36289 182.636 6.95168C182.714 7.34166 182.719 7.99579 182.719 7.99579V9.49796H189.545V8.60998C189.545 8.60998 189.577 7.68332 189.494 6.81856C188.98 1.74089 184.791 0.134405 179.987 0.134405C175.175 0.134405 171.071 1.75583 170.473 6.81856C170.419 7.28153 170.336 8.11431 170.336 8.60998V19.9902C170.336 20.4858 170.352 20.8695 170.444 21.7752C170.89 26.7132 175.175 28.4636 179.968 28.4636C184.791 28.4636 189.048 26.7132 189.501 21.7752C189.581 20.8695 189.589 20.4858 189.6 19.9902V12.7373H180.012ZM132.944 0.862568H126.089V20.8873C126.1 21.2362 126.089 21.6282 126.029 21.9157C125.886 22.5879 125.315 23.8815 123.424 23.8815C121.558 23.8815 120.972 22.5879 120.84 21.9157C120.771 21.6282 120.763 21.2362 120.771 20.8873V0.862568H113.918V20.2657C113.91 20.7659 113.949 21.7877 113.978 22.0555C114.451 27.1116 118.441 28.7531 123.424 28.7531C128.417 28.7531 132.404 27.1116 132.886 22.0555C132.924 21.7877 132.974 20.7659 132.944 20.2657V0.862568ZM69.9591 0.862568L66.5395 22.0213L63.1221 0.862568H52.0644L51.478 27.9308H58.2523L58.4357 2.87292L63.0967 27.9308H69.9698L74.635 2.87292L74.8191 27.9308H81.6105L81.0041 0.862568H69.9591ZM29.0184 0.862568L23.9976 27.9308H31.3193L35.1029 2.87292L38.7956 27.9308H46.0666L41.0666 0.862568H29.0184ZM156.902 22.6557L150.518 0.862568H140.46V27.6486H147.114L146.727 5.15821L153.582 27.6486H163.229V0.862568H156.532L156.902 22.6557ZM95.3543 7.90716C95.234 7.37259 95.2688 6.80466 95.331 6.50783C95.5252 5.64134 96.1076 4.69629 97.7878 4.69629C99.3534 4.69629 100.271 5.67088 100.271 7.13346V8.78862H106.953V6.90198C106.953 1.06972 101.717 0.153525 97.9263 0.153525C93.1523 0.153525 89.2527 1.72524 88.5408 6.11368C88.3525 7.30794 88.306 8.36803 88.6055 9.72076C89.7663 15.1926 99.3053 16.7799 100.69 20.2404C100.934 20.896 100.864 21.7318 100.74 22.2243C100.532 23.1249 99.9259 24.0307 98.1271 24.0307C96.4403 24.0307 95.4256 23.0623 95.4256 21.6029L95.4231 19.0052H88.2305V21.07C88.2305 27.0535 92.9233 28.8588 97.9786 28.8588C102.819 28.8588 106.817 27.2068 107.459 22.7287C107.765 20.4149 107.534 18.9078 107.411 18.3402C106.29 12.728 96.1242 11.0398 95.3543 7.90716ZM7.20448 7.84077C7.07327 7.29508 7.10389 6.71915 7.17698 6.41885C7.36214 5.55652 7.94859 4.59479 9.65781 4.59479C11.2432 4.59479 12.1766 5.57877 12.1766 7.05317V8.72846H18.9374V6.82691C18.9374 0.938689 13.6213 0.000244141 9.78907 0.000244141C4.97457 0.000244141 1.04064 1.59629 0.320894 6.01637C0.123902 7.22974 0.0901313 8.29711 0.37483 9.66483C1.54843 15.1989 11.1815 16.7991 12.5831 20.3009C12.8456 20.9519 12.7662 21.7877 12.636 22.2994C12.4136 23.2093 11.8022 24.128 9.98886 24.128C8.29559 24.128 7.28279 23.143 7.28279 21.6634L7.27339 19.0587H0V21.1284C0 27.1803 4.75948 29.0002 9.85345 29.0002C14.7507 29.0002 18.7723 27.3336 19.4285 22.8037C19.7545 20.4687 19.5098 18.9491 19.3999 18.3729C18.2558 12.6919 7.97609 11.0093 7.20448 7.84077Z" fill="#1428A0"/>
</g>
<defs>
<clipPath id="clip0_8_1695">
<rect width="190" height="29" fill="white"/>
</clipPath>
</defs>
</svg>
